<?xml version="1.0" encoding="UTF-8"?>
<!DOCTYPE svg PUBLIC "-//W3C//DTD SVG 1.1//EN" "http://www.w3.org/Graphics/SVG/1.1/DTD/svg11.dtd">
<!-- Creator: CorelDRAW 2021 (64-Bit) -->
<svg xmlns="http://www.w3.org/2000/svg" xml:space="preserve" width="2176px" height="1571px" version="1.1" style="shape-rendering:geometricPrecision; text-rendering:geometricPrecision; image-rendering:optimizeQuality; fill-rule:evenodd; clip-rule:evenodd"
viewBox="0 0 2175.88 1571.7"
 xmlns:xlink="http://www.w3.org/1999/xlink"
 xmlns:xodm="http://www.corel.com/coreldraw/odm/2003">
 <defs>
  <style type="text/css">
   <![CDATA[
    .fil1 {fill:#00052A}
    .fil0 {fill:#015FA5}
    .fil2 {fill:#015FA5}
   ]]>
  </style>
 </defs>
 <g id="Layer_x0020_1">
  <metadata id="CorelCorpID_0Corel-Layer"/>
  <g id="_2211238653968">
   <g>
    <path class="fil0" d="M730.97 782.48c113.42,9.09 186.91,24.42 298.88,45.59 24.52,4.52 48.69,11.86 73.29,16.23 112.6,20.02 189.48,40.02 313.38,40.17 145.66,0.17 289.21,-42.4 396.39,-138.51 30.25,-27.12 59.18,-63.44 82.9,-96.2 9.91,-15.03 18.77,-31.73 27.18,-47.64 -6.86,1.6 -103.73,82.42 -256.38,108.55 -99.86,17.09 -173.72,12.92 -271.65,3.74 -80.61,-6.48 -163.94,-28.87 -240.82,-41.33 -103.79,-15.65 -172.7,-26.98 -279.36,-29.66 -193.57,-4.87 -423.99,56.42 -572.03,185.49 -14.74,12.85 -43.86,34.69 -53.26,48.75 7.9,-1.84 88.71,-54.4 218.59,-80.59 90.04,-18.16 171.78,-19.17 262.89,-14.59z"/>
    <path class="fil1" d="M1551.28 280.99c10.5,-9.46 63.69,22.99 34.16,59.32 -19.12,23.52 -62.59,5.77 -64.68,-19.39 5.15,1.37 30.27,28.68 51.16,5.64 12.79,-14.11 -2.33,-41.41 -20.64,-45.57zm-812.32 196.4c-9.13,0 -25.14,-14.25 -30.61,-21.52 -8.95,-11.86 -3.32,-11.2 -31.56,-2.15l-71.53 21.41c0,20.48 11.91,51.4 23.8,69.16 93.46,-33.51 155.76,-48.25 256.23,-58.8 19.97,-2.09 54.86,-2.08 74.14,-4.04 42.5,-4.31 198.45,5.69 254.79,14.71 71.04,11.37 162.78,23.19 232.89,23.19 47.8,0 119.82,-7.44 164.75,-18.82 5.46,-1.38 45.97,-11.28 49.4,-12.93 0,-10.74 -3.4,-18.62 -3.4,-30.62 0,-61.54 17.06,-93.96 40.8,-147.39 5.71,-12.85 33.27,-66.88 42.13,-81.44 4.52,-7.43 31.5,-60.62 31.5,-67.12 0,-11.22 -9.96,-22.14 -17.74,-26.46 -29.12,-16.17 -78.77,-3.44 -110.06,5.15 -116.12,32.96 -219.14,71.14 -330.94,112.16 -10.73,3.94 -23.97,25.23 -38.4,39.82 -10.35,10.46 -23.61,30.05 -41.18,35.89 -83.43,26.59 -170.91,51.52 -255.22,77.95 -28.18,8.84 -237.51,71.85 -239.79,71.85z"/>
    <path class="fil0" d="M376.39 732.52c42.31,-21.1 69.52,-42.5 120.35,-60.97 90.39,-32.81 167.26,-54.95 269.46,-58.04 60.07,-1.82 89.11,-5.75 156.36,-2.36 55.61,2.8 260.48,22.29 323.04,32.76 77.44,12.96 267.99,36.24 351.4,25.44 54.57,-7.07 69.58,-6.26 130.21,-21.64 59.06,-14.98 126.11,-44.91 176.52,-81.87 -20.02,0.44 -75.2,28.78 -159.21,-0.55 -29.56,-10.32 -48.54,-27.51 -66.27,-47.07 -4.48,0.37 -40.02,10.5 -50.1,13.35 -51.57,14.58 -153.29,22.29 -208.14,20.58 -183.42,-5.71 -331.94,-43.14 -528.74,-31.19 -57.39,3.49 -102.53,10.4 -159.2,22.11 -46.94,9.7 -150.31,44.24 -190.71,68.81 -37.26,22.65 -73.65,41.84 -109.81,71.53 -17.86,14.94 -38.19,32.85 -55.16,49.11z"/>
    <path class="fil1" d="M742.36 280.1c7.34,-1.72 17.15,-3.41 26.06,-3.41 2.88,0 4.53,14.25 4.53,18.15 -3.76,1.8 -18.19,3.95 -23.07,4.35 -7.49,0.62 -7.52,-8.22 -7.52,-19.09zm43.06 -5.67c1.23,-2.56 24.47,-5.91 27.08,-3.75 1.14,0.95 5.08,18.88 2.32,19.39 -2.55,0.47 -22.91,3.56 -26.01,3.63 -1.74,-3.63 -3.39,-13.65 -3.39,-19.27zm44.18 -4.54c0,-3.22 16.5,-4.8 21.1,-5.11 5.55,-0.39 5.04,1.71 5.86,6.47 0.73,4.24 1.37,6.93 1.37,11.11 -3.48,1.67 -20.6,4.54 -26.06,4.54 -1.26,-5.4 -2.27,-10.28 -2.27,-17.01zm81.58 -13.61c7.02,-0.58 15.64,-2.82 22.66,-3.4 1.51,3.15 3.4,13.32 3.4,18.14 -4.51,2.17 -15.64,3.41 -22.66,3.41 -3.29,0 -3.4,-13.76 -3.4,-18.15zm-40.79 6.8c4.29,-2.05 18.55,-4.53 24.93,-4.53 1.81,3.77 3.4,12.56 3.4,18.14 -4.53,2.18 -5.02,1.78 -11.12,2.48 -12.51,1.44 -15.25,7.42 -17.21,-16.09zm-58.91 -95.24c-24.91,0.55 -17.91,9.07 -15.87,9.07 7.54,0 9.81,-1.14 17,-1.14 0.94,7.1 7.93,56.14 7.93,61.24l-48.72 6.8c-10.69,-20.22 5.32,-45.36 -27.19,-45.36 -9.34,0 -30.6,4.7 -30.6,14.74 0,32.91 14.53,36.35 -7.12,39.37 -18.6,2.59 -37.07,0.86 -37.07,19.6 0,11.86 30.6,-12.85 30.6,27.21 0,3.42 -63.14,10.62 -69.8,11.79 -5.49,1.15 -14.56,7.06 -18.58,9.76l6.8 39.68c5.66,2.72 12.14,1.63 22.92,8.81 18.73,12.48 14.31,44.08 21.27,73.97 5.95,-0.5 16.33,-5.07 22.66,-6.81 19.21,-5.26 19.61,-11.33 36.73,10.86 15.42,19.99 19.77,14.54 39.58,8.81 7.32,-2.11 14.6,-3.58 19.99,-7.19 -2.17,-26.22 -15.75,-52.24 2.28,-63.49 3.28,-2.05 97.64,-36.97 116.67,-45.4 5.26,-2.33 10.18,-4.88 17.1,-5.56 12.92,-1.28 9.22,-2.61 17.11,-6.68 8.92,-4.6 86.65,-34.78 99.51,-39.89 -0.48,-5.82 -3.35,-26.24 -5.66,-30.62 -11.94,1.59 -62.74,9.08 -70.25,9.08 -0.19,-8.33 -2.52,-27.83 9.72,-32.24 2.9,-1.04 10.68,-2.55 10.68,-5.18 0,-13.92 -18.69,-9.14 -30.25,-7.59l-117.05 13.26 -6.14 -39.21c-3.27,-21.31 -5.57,-20.71 5.44,-22.73 4.09,-0.75 5.86,-1.47 9.76,-1.56 -0.22,-10.02 -4.34,-4.54 -19.26,-4.54l-7.59 -40.04c-2.28,-9.54 -8.11,-6.32 -7.15,3.63 0.86,8.85 4.55,32.79 4.55,37.55z"/>
    <path class="fil1" d="M1121.93 267.62c0,10.05 8.89,56.91 10.2,72.57 5.9,-0.13 98.46,-30.02 104.26,-33.99 18.35,-12.57 45.03,-47.01 59.53,-64.02 3.44,-3.47 5.09,-4 10.03,-5.84 23.58,-8.77 155.4,-58.35 157.02,-60.57 -44.8,4.36 -89.84,9.16 -134.62,13.82 -18.07,2 -14.92,2.29 -31.77,9.03 -2.34,0.93 -174.65,67.04 -174.65,69z"/>
    <path class="fil0" d="M1708.84 504.61c4.8,17.96 66.86,44.22 103.11,44.22 5.16,0 41.8,-41.97 47.95,-49.53 30.24,-39.58 52.3,-85.54 62.98,-135.4 1.2,-5.57 3.37,-10.74 3.51,-16.9 -71.18,79.24 -100.82,102.25 -200.64,150.71 -6.87,3.34 -14.65,5.7 -16.91,6.9z"/>
    <path class="fil1" d="M947.44 399.15l148.13 -46.79c3.59,-1.21 6.91,-2.19 10.36,-3.24 12.86,-3.9 12.59,2.53 5.47,-40.35 -0.81,-4.89 -2.05,-12.88 -2.74,-17.67 -0.54,-3.74 -0.61,-6.16 -1.28,-8.92 -1.34,-5.55 -0.93,-2.66 -3.58,-6.62 -5.25,0.44 -9.68,2.77 -13.62,4.52 -31.16,13.79 -77.94,28.89 -107.95,41.64l-26.73 10.67c-24.08,8.69 -18.19,3.23 -13.91,34.07 0.88,6.36 1.67,10.62 2.52,16.75 0.9,6.56 0.6,10.79 3.33,15.94z"/>
    <path class="fil1" d="M786.55 396.89c0,14.5 6.51,36.8 6.8,49.89l139.36 -43.09c0,-4.87 -1.38,-10.12 -1.94,-13.94l-4.36 -29.65c-3.06,-19.39 0.71,-15.35 -38.6,-1.34l-33.94 12.52c-5.75,2.21 -10.88,4.18 -16.34,6.33 -2.6,1.03 -5.39,1.86 -8.26,3.07 -10.69,4.53 -35.27,11.21 -42.72,16.21z"/>
    <path class="fil1" d="M1510.74 161.03l24.75 -7.93 -32.42 -151.8c-0.62,-2.88 -2.84,-0.06 -3.84,-0.15l11.51 159.88z"/>
   </g>
   <g>
    <path class="fil1" d="M2011.34 959.22l0 389.43 61.56 0 0 -264.1 3.36 0 20.15 132.05c1.87,11.03 3.16,21.52 4.95,33.1l15.19 98.95 59.33 0 0 -391.67 -59.14 -0.38c-0.08,0 -2.92,0.33 -3.54,0.38l0 245.07 -3.36 0 -9.75 -60.76c-3.46,-21.01 -6.49,-40.37 -9.91,-61.71l-19.52 -122.6c-11.16,-0.93 -34.54,0.5 -48.18,-0.03 -4.46,-0.18 -11.14,-2.59 -11.14,2.27z"/>
    <path class="fil1" d="M526.06 956.98l0 391.67 61.56 0 0 -264.1 3.36 0c0,4.95 1.43,11.48 2.04,15.86 0.88,6.27 1.67,10.48 2.5,16.53l34.63 231.71 59.33 0 0 -391.67c-8.49,-1.79 -39.99,0.96 -53.75,-0.09 -3.37,-0.25 -4.65,-1.08 -6.52,-0.6 -3.67,0.96 -1.3,2.04 -1.3,5.17l0 240.59 -4.47 0c0,-6.56 -34.97,-227.03 -39.18,-245.07l-58.2 0z"/>
    <path class="fil1" d="M1310.67 1152.81c14.46,0 26.48,-2.37 30.96,8.22 4.62,10.9 2.62,92.35 2.62,109.28 0,27.76 -14.4,23.5 -33.58,23.5l0 -141zm0 -141c21.26,0 33.58,-4 33.58,24.62 0,107.93 7.17,104.07 -33.58,104.07l0 -128.69zm-64.91 -52.59l0 389.43 95.13 0c19.35,0 36.21,-5.42 48.98,-18.18 5.82,-5.82 10.56,-12.02 13.56,-20.01 2.92,-7.76 5.74,-18.57 5.74,-28.96l0 -77.21c0,-34.15 -11.42,-48.98 -40.6,-53.4 -8.57,-1.3 -20.96,-2.55 -29.91,-2.55l0 -3.36c40.82,0 70.51,-5.03 70.51,-51.48 0,-23.67 2.51,-80.01 -4.61,-99.46 -10.17,-27.82 -36.04,-36.04 -63.69,-37.13 -22.98,-0.9 -64.86,0.07 -90.64,0.07 -2.73,0 -4.47,-2.48 -4.47,2.24z"/>
    <path class="fil1" d="M231.69 1165.12l-15.67 0 0 -152.19c15.62,0 31.34,-3.26 31.34,20.15l0 110.78c0,12.42 -3.16,21.26 -15.67,21.26zm-81.71 -205.9l0 389.43 66.04 0 0 -171.22c13.31,0 26.09,-2.32 29.79,8.27 2.23,6.39 1.55,14.98 1.55,23.07 0,33.6 -2.82,119.74 7.84,139.88l68.27 0c-1.45,-6.23 -4.75,-6.99 -7.7,-23.63 -3.38,-19.02 -3.57,-72.06 -3.49,-93.88 0.19,-50.48 -24.35,-59.3 -69.4,-59.3l0 -3.36c20.99,0 38.39,-1.74 51.03,-10.54 13.38,-9.32 18.37,-26.72 18.37,-43.17l0 -92.88c0,-73.65 -63.07,-64.91 -108.57,-64.91l-43.71 0.02c-5.15,-0.08 -10.02,-2.5 -10.02,2.22z"/>
    <path class="fil1" d="M1620.71 1012.93c15.2,0 27,-2.62 30.7,11.84 2.94,11.48 1.76,87.17 1.76,102.31 0,41.29 -4.31,38.04 -32.46,38.04l0 -152.19zm-64.91 -55.95l0 391.67 64.91 0 0 -171.22c37.32,0 32.46,-3.79 32.46,79.45 0,16.41 0.08,32.84 0,49.25 -0.05,8.02 0.85,16.4 1.9,22.72 2.22,13.4 2.77,10.98 4.82,19.8l68.27 0c-3.55,-15.27 -10.28,-19.53 -10.08,-53.7 0.11,-20.42 1.49,-72.5 -4.04,-91.08 -8.69,-29.16 -38.24,-32.03 -65.34,-32.03l0 -3.36c80.82,0 69.39,-40.73 69.39,-126.45 0,-20.66 -1.3,-40.72 -7.82,-54.85 -3.04,-6.59 -8.42,-12.77 -14.23,-17.1 -6.41,-4.79 -12.48,-7.71 -21.35,-9.99 -9.48,-2.43 -15.7,-2.71 -27.87,-3.36l-91.02 0.25z"/>
    <path class="fil1" d="M1891.58 1256.88c1.59,-19.07 2.87,-40.3 4.42,-59.36 0.8,-9.93 0.16,-20.16 1.48,-29.85 0.96,-7.02 1.95,-21.34 1.91,-29.43l3.69 -58.98c1,-7.3 1.85,-21.01 1.9,-29.43 0.04,-6.43 1.25,-7.72 1.17,-14.5 -0.09,-7.46 -2.07,-10.66 4.46,-11.21 0,33.71 5.74,81.3 6.68,117.54l7.87 115.22 -33.58 0zm-74.99 91.77l69.39 0c0,-16.14 1.99,-34.35 3.3,-50.42 0.29,-3.59 -0.17,-7.48 0.12,-11.07 0.36,-4.4 0.98,-4.55 1.01,-10.19 0.04,-10.26 -2.55,-7.78 32.51,-7.78 4.85,0 3.04,5.53 4.31,16.95l1.32 21.07c0.37,14.32 2.2,27.47 2.2,41.44l69.4 0c-0.56,-6.76 -2.14,-17.31 -3.02,-23.84 -7.68,-57.36 -13.38,-115.36 -20.82,-171.66l-24.29 -196.17c-18.22,0 -65.95,0.93 -81.81,-0.09 -9.57,-0.62 -5.94,-3.14 -10.89,37.22 -4.82,39.37 -9.62,79.22 -14.43,117.62l-21.38 176.69c-1.29,10.37 -2.73,19.79 -3.6,29.98 -0.83,9.85 -3.32,20 -3.32,30.25z"/>
    <path class="fil1" d="M406.3 1256.88c0,-17.07 4.53,-56.3 4.45,-73.88 -0.03,-6.77 1.14,-8.1 1.18,-14.48 0.14,-19.39 2.71,-35.92 3.29,-58.26 0.21,-8.08 2.09,-19.84 2.31,-27.91l3.32 -58.23 3.36 0 3.66 59.01c1,7.3 1.85,21.01 1.9,29.43l5.64 86.12c-0.02,8.38 1.2,21.55 2.06,29.27l1.29 28.93 -32.46 0zm-27.98 -299.9l-6.24 48.6c-1.17,8.52 -1.86,15.77 -2.81,24.04 -0.91,7.9 -2.42,16.95 -3.16,24.82 -3.86,40.93 -12.61,104.29 -17.81,146.7l-14.85 122.79c-0.88,7.69 -2.63,17.16 -3.26,24.72l58.21 0.01c10.52,0.1 12.56,2.55 12.39,-7.76 -0.13,-8.06 1.02,-11.17 1.07,-17.96l2.2 -38.08c-0.18,-19.82 -1.11,-15.67 35.82,-15.67 0,5.22 0.71,4.69 1.06,9.02 1.08,13.66 0.91,34.53 3.11,50.6l1.42 19.84 68.28 0c0,-10.03 -2.06,-20.38 -3.15,-29.3l-25.04 -206.62c-4.75,-38.76 -9.95,-78.48 -14.34,-117.7 -1.1,-9.8 -2.6,-18.81 -3.45,-29.01 -0.1,-1.28 -0.71,-5.96 -0.99,-6.91 -1.24,-4.12 -0.85,-2.67 -4.54,-2.43 -18.95,1.23 -63.17,0.3 -83.92,0.3z"/>
    <path class="fil1" d="M979.37 1047.62c0,44.87 17.27,77.1 43.48,109.84 5.63,7.03 13.62,13.06 22.89,24.12l9.49 10.65c17.98,20.6 23.75,38.24 23.75,70.25 0,50.32 -35.81,41.46 -35.81,13.43 0,-33.51 6.83,-33.82 7.83,-45.88 -8.92,-2.08 -20.78,-2.39 -31.01,-3.69 -9.8,-1.24 -21.38,-3.03 -32.79,-3.03 -0.18,8.09 -15.37,50.07 -0.33,85.38 2.4,5.63 3.58,8.58 6.8,13.34 1.86,2.75 2.36,3.23 4.37,5.71 12.26,15.1 28.21,21.83 47.79,24.95 3.65,0.58 16.56,1.66 19.38,1.28 22.46,-2.98 39.91,-5.52 56.5,-26.4 18.56,-23.35 19.95,-51.72 19.95,-81.88 0,-44.9 -20.31,-73.75 -45.24,-105.83 -7.41,-9.54 -26.22,-27.07 -36.32,-39.79 -27.94,-35.18 -20.89,-92.73 -0.14,-92.73 16.94,0 19.02,12.76 19.02,29.09 0,23.42 -8.4,33.64 -8.95,40.29 10.77,0 21.21,2.23 31.34,3.36 10.72,1.19 20.83,3.35 32.46,3.35 0.78,-9.43 7.83,-19.24 7.83,-53.71 0,-87.86 -104.75,-96.73 -141.2,-51.65 -15.02,18.56 -21.09,44.34 -21.09,69.55z"/>
    <path class="fil1" d="M705.15 1045.38c0,51.88 19.72,88.61 54,122.82l9.52 10.62c21.16,24.02 36.09,36.98 36.09,81.42 0,54.65 -35.82,42.05 -35.82,16.79 0,-32.18 2.04,-22.14 7.84,-47l-63.8 -6.72c-1.23,14.78 -6.72,10.74 -6.72,54.84 0,34.25 19.34,62.06 51.61,71.5 9.76,2.85 25.35,5.23 36.01,3.8 13.18,-1.77 19.21,-1.73 32.91,-8.52 34.6,-17.13 40.65,-61.57 40.65,-97 0,-44.42 -22.94,-82.01 -43.9,-106.06l-17.39 -19.54c-2.99,-3.4 -6.23,-6.23 -9.52,-9.51 -22.21,-22.09 -28.81,-41.34 -28.81,-74.15 0,-39.19 36.94,-43.65 36.94,-4.47 0,43.55 -21.2,40.62 -1.49,42.87 8.52,0.98 18.25,2.16 27.87,3.49 9.63,1.33 18.37,2.87 28.47,2.87 0.94,-11.34 7.83,-24.09 7.83,-51.47 0,-24.16 -6.82,-41.24 -21.08,-58.38 -4.38,-5.28 -17.69,-13.17 -24.46,-15.83 -20.74,-8.14 -50,-8.67 -70.14,1.08 -12.51,6.06 -16.61,9.8 -25.65,19.11 -12.72,13.08 -20.96,41.55 -20.96,67.44z"/>
    <path class="fil1" d="M1535.65 956.98l-107.45 0 0 391.67 110.81 0 0 -54.84 -45.89 0 0 -117.5 40.29 0 0 -47c0,-3.85 0.83,-4.33 1.12,-7.83l-41.41 0 0 -109.67 45.89 0 0 -55.95c-1.37,0.77 -1.2,1.12 -3.36,1.12z"/>
    <path class="fil1" d="M0 956.98l0 54.83 34.7 0 0 336.84 66.04 0 0 -336.84 32.46 0c2.57,0 3.35,-0.77 3.35,-3.35l0 -49.24c0,-4.72 -1.74,-2.24 -4.47,-2.24 -44.26,-0.06 -87.77,-1.1 -132.08,0z"/>
    <path class="fil1" d="M1158.45 1348.65l64.92 0 0 -391.67 -61.56 0c-4.28,0 -0.41,0.34 -3.36,-1.12l0 392.79z"/>
    <polygon class="fil1" points="1739.36,1348.65 1804.27,1348.65 1804.27,956.98 1739.36,956.98 "/>
    <polygon class="fil1" points="878.63,1243.46 970.41,1243.46 970.41,1191.98 878.63,1191.98 "/>
   </g>
   <g>
    <path class="fil2" d="M1098.57 1569.1c0,-11.3 -1.14,-18.14 -1.12,-29.1l-1.12 -88.4 82.51 109.98c1.98,2.59 3.97,4.43 4.8,7.52l24.62 0 0 -160.03 -25.74 0c0,10.45 0.01,20.89 0,31.34 -0.02,11.17 1.13,17.91 1.12,29.09 -0.02,10.07 0,20.14 0,30.22l1.12 26.85c-5.69,-3.81 -69.61,-91.67 -78.67,-103.75 -2.07,-2.76 -8.53,-13.75 -12,-13.75l-21.26 0 0 160.03 25.74 0z"/>
    <path class="fil2" d="M1265.34 1488.53c0,24.27 3.5,44.39 18.18,60.16 24.65,26.49 58.65,27 91.52,17.05 4.47,-1.35 24.62,-7.65 24.62,-12.31l0 -68.26 -58.21 0 0 22.38 32.46 0 0 34.69c-12.73,2.97 -16.09,6.71 -35.81,6.71 -49.82,0 -54.32,-72.72 -29.9,-101.5 9.35,-11.02 21.48,-17.11 39.97,-17.11 10.57,0 28.91,3.4 35.82,6.71l7.83 -22.38c-14.78,-1.23 -53.86,-21.08 -92.93,6.68 -17.11,12.16 -33.55,39.66 -33.55,67.18z"/>
    <path class="fil2" d="M422.53 1499.72l76.11 0 0 69.38 25.74 0 0 -156.67c0,-5.68 -10.28,-3.36 -25.74,-3.36l0 67.15 -76.11 0 0 -67.15 -25.75 0 0 160.03 25.75 0 0 -69.38z"/>
    <path class="fil2" d="M855.69 1432.57l14.55 0c44.15,0 31.59,41.75 24.22,47.72 -10.03,8.11 -23.78,6 -38.77,6l0 -53.72zm22.38 77.22c6.32,0 14.81,-1.86 19.71,-3.8 2.94,-1.16 5.83,-2.73 8.31,-4 28.82,-14.89 30.08,-63.43 4.48,-81.76 -20.35,-14.56 -54.89,-11.16 -80.63,-11.16l0 160.03 25.75 0 0 -59.31 22.38 0z"/>
    <path class="fil2" d="M725.85 1486.29l-21.26 0 0 -53.72c30.62,0 45.89,-1.09 45.89,31.34 0,13.21 -10.66,22.38 -24.63,22.38zm-47.01 82.81l25.75 0 0 -59.31c24.48,0 37.18,2.27 56.95,-12.44 20.84,-15.52 22.67,-58.43 -1.43,-76.65 -20.18,-15.25 -53.32,-11.63 -81.27,-11.63l0 160.03z"/>
    <path class="fil2" d="M328.51 1435.93c1.9,-3.59 7.45,-17.75 7.83,-22.38 -4.66,-0.1 -13.77,-3.18 -18.11,-4.27 -65.05,-16.42 -96.08,43.42 -56.03,76.16l31.61 18.76c9.41,4.86 24.92,11.91 22.87,26.3 -1.94,13.59 -15.61,18.45 -30.7,18.45 -18.03,0 -29.26,-6.9 -38.06,-8.95 -2.96,6.18 -4.82,14.98 -7.83,21.26 17.99,9.52 35.32,10.07 55.96,10.07 23.56,0 47.01,-17.1 47.01,-40.28l0 -8.95c0,-24.34 -35.01,-40.74 -55.98,-51.46 -28.65,-14.65 -12.95,-40.3 5.61,-40.3 12.04,0 25.34,0.56 35.82,5.59z"/>
    <path class="fil2" d="M1810.43 1490.76c0,32.89 10.34,59.23 37.67,73.13 19.45,9.91 45.97,9.43 66.83,3.37l20.86 -7.12c0,-9 -2.24,-14.49 -2.24,-23.5 -7.74,0.65 -24.33,12.31 -47.01,12.31 -47.03,0 -54.26,-50.42 -43.26,-83.54 7.42,-22.33 24.82,-35.07 51.1,-35.07 9.26,0 25.34,2.71 31.34,5.59 3.13,-6.53 4.7,-15.85 7.83,-22.38 -9.8,-0.82 -16.19,-6.72 -42.53,-6.72 -47.07,0 -80.59,37.18 -80.59,83.93z"/>
    <polygon class="fil2" points="1550.76,1569.1 1641.42,1569.1 1641.42,1545.6 1576.5,1545.6 1576.5,1409.07 1550.76,1409.07 "/>
    <polygon class="fil2" points="1688.43,1569.1 1779.09,1569.1 1779.09,1545.6 1714.17,1545.6 1714.17,1409.07 1688.43,1409.07 "/>
    <polygon class="fil2" points="983.29,1569.1 1009.03,1569.1 1009.03,1409.07 983.29,1409.07 "/>
    <polygon class="fil2" points="589.3,1569.1 615.04,1569.1 615.04,1409.07 589.3,1409.07 "/>
   </g>
  </g>
 </g>
</svg>
